# xmcd
#
# Track frame offsets:
#	150
#	15881
#	30216
#	43940
#	62359
#	78195
#	84214
#	94336
#	106929
#	117058
#	128471
#	137339
#	147005
#	158325
#	172054
#	183759
#	197521
#	210538
#	223847
#	232771
#	246305
#	258307
#	270033
#	288717
#	302671
#
# Disc length: 4169 seconds
#
# Revision: 1
# Processed by: cddbd v1.5.2PL0 Copyright (c) Steve Scherf et al.
# Submitted via: audiograbber 1.83.01
#
DISCID=32104719
DTITLE=Roger Miller - Roger Miller - The Definitive Collection - Disc 2
DYEAR=2015
DGENRE=Country
TTITLE0=Swiss Cottage Place
TTITLE1=Jody And The Kid
TTITLE2=Where Have All The Average People Gone
TTITLE3=Me And Bobby McGee
TTITLE4=Darby's Castle
TTITLE5=Boeing Boeing 707
TTITLE6=Tall Tall Trees
TTITLE7=Half A Mind
TTITLE8=When Two Worlds Collide
TTITLE9=The Tom Green County Fair
TTITLE10=Don't We All Have The Right
TTITLE11=My Ears Should Burn (When Fools Are Talked About)
TTITLE12=When A House Is Not A Home
TTITLE13=South
TTITLE14=Invitation To The Blues
TTITLE15=Lovin' Her Was Easier (Than Anything I'll Ever Do Again)
TTITLE16=Tomorrow Night in Baltimore
TTITLE17=Rings For Sale
TTITLE18=Sunny Side Of My Life
TTITLE19=We Found It In Each Other's Arms
TTITLE20=(The Day I Jumped) From Uncle Harvey's Plane
TTITLE21=Hoppy's Gone
TTITLE22=River In The Rain
TTITLE23=Some Hearts Get All The Breaks
TTITLE24=Tolivar
EXTD=
EXTT0=
EXTT1=
EXTT2=
EXTT3=
EXTT4=
EXTT5=
EXTT6=
EXTT7=
EXTT8=
EXTT9=
EXTT10=
EXTT11=
EXTT12=
EXTT13=
EXTT14=
EXTT15=
EXTT16=
EXTT17=
EXTT18=
EXTT19=
EXTT20=
EXTT21=
EXTT22=
EXTT23=
EXTT24=
PLAYORDER=
